<svg xmlns="http://www.w3.org/2000/svg" viewBox="0 0 64 64" width="64" height="64">
  <!-- Base Circle -->
  <circle cx="32" cy="32" r="30" fill="#F5F5F5" stroke="#C9A96E" stroke-width="1.5" />
  
  <!-- Leaf Shape -->
  <path d="M32 16C42 16 48 22 48 32C48 42 42 48 32 48C22 48 16 42 16 32C16 22 22 16 32 16Z" fill="none" stroke="#C9A96E" stroke-width="1.5" />
  
  <!-- Leaf Vein -->
  <path d="M32 16C32 32 32 48 32 48" fill="none" stroke="#C9A96E" stroke-width="1.5" />
  
  <!-- Side Veins -->
  <path d="M32 24C36 24 40 26 42 28" fill="none" stroke="#C9A96E" stroke-width="1" />
  <path d="M32 32C36 32 42 34 44 38" fill="none" stroke="#C9A96E" stroke-width="1" />
  <path d="M32 40C34 40 38 42 40 44" fill="none" stroke="#C9A96E" stroke-width="1" />
  
  <path d="M32 24C28 24 24 26 22 28" fill="none" stroke="#C9A96E" stroke-width="1" />
  <path d="M32 32C28 32 22 34 20 38" fill="none" stroke="#C9A96E" stroke-width="1" />
  <path d="M32 40C30 40 26 42 24 44" fill="none" stroke="#C9A96E" stroke-width="1" />
  
  <!-- Recycling Symbol -->
  <path d="M30 12L34 12L32 8Z" fill="#C9A96E" />
  <path d="M52 30L52 34L56 32Z" fill="#C9A96E" />
  <path d="M12 30L12 34L8 32Z" fill="#C9A96E" />
</svg> 